<svg viewBox="0 0 64 64" xmlns="http://www.w3.org/2000/svg"><path d="M32 6C17.66 6 6 17.66 6 32c0 14.33 11.66 26 26 26 14.33 0 26-11.67 26-26C58 17.66 46.33 6 32 6ZM10 32c0-12.131 9.869-22 22-22s22 9.869 22 22c0 4.32-1.26 8.36-3.43 11.76L37.88 31.377c.43-3.09-.61-6.24-2.83-8.47 -2.49-2.49-6.03-3.474-9.45-2.64 -.71.17-1.26.7-1.46 1.404 -.2.69 0 1.44.51 1.95l1.7 1.7 -.64 2.38 -2.39.64 -1.71-1.71c-.52-.52-1.26-.71-1.96-.52 -.7.19-1.24.75-1.404 1.45 -.84 3.43.14 6.96 2.63 9.45 2.22 2.22 5.37 3.26 8.46 2.82l11.8 12.09c-2.8 1.29-5.91 2.01-9.19 2.01 -12.131 0-22-9.869-22-22Zm34.754 17.909l-13.27-13.6c-.51-.52-1.25-.73-1.95-.54 -2.07.55-4.29-.05-5.8-1.55 -.49-.49-.88-1.04-1.17-1.63 .23.02.45-.01.68-.07l4.61-1.24c.69-.19 1.22-.73 1.41-1.42l1.23-4.62c.06-.23.08-.46.06-.69 .59.28 1.14.67 1.63 1.16 1.5 1.5 2.09 3.72 1.54 5.791 -.19.69.01 1.44.53 1.94l13.79 13.46c-1.02 1.09-2.15 2.08-3.37 2.95Z"/></svg>