<svg xmlns="http://www.w3.org/2000/svg" width="1226.1" height="2013" viewBox="0 -300 1226.1 2013">
  <g id="website-maintenance" transform="translate(-356.3 -28.8)">
    <g id="Group_68475" data-name="Group 68475" opacity="0.1">
      <path id="Path_52493" data-name="Path 52493" d="M466.3,715.7A49.163,49.163,0,0,0,463,705a6.036,6.036,0,0,1,.9-6.3l6.1-7.5L460.8,680l-8.5,4.5a6.157,6.157,0,0,1-6.4-.4,52.306,52.306,0,0,0-9.9-5.3,6.025,6.025,0,0,1-3.8-5.1l-.9-9.6-14.4-1.4-2.8,9.3a6.082,6.082,0,0,1-4.8,4.2,49.163,49.163,0,0,0-10.7,3.3,6.036,6.036,0,0,1-6.3-.9l-7.5-6.1-11.2,9.2,4.5,8.5a6.158,6.158,0,0,1-.4,6.4,52.306,52.306,0,0,0-5.3,9.9,6.026,6.026,0,0,1-5.1,3.8l-9.6.9-1.4,14.4,9.3,2.8a6.082,6.082,0,0,1,4.2,4.8,49.163,49.163,0,0,0,3.3,10.7,6.006,6.006,0,0,1-.9,6.3l-6.1,7.5,9.2,11.2,8.5-4.5a6.157,6.157,0,0,1,6.4.4,52.306,52.306,0,0,0,9.9,5.3,6.025,6.025,0,0,1,3.8,5.1l.9,9.6,14.4,1.4,2.8-9.3a6.082,6.082,0,0,1,4.8-4.2,49.163,49.163,0,0,0,10.7-3.3,6.036,6.036,0,0,1,6.3.9l7.5,6.1,11.2-9.2-4.5-8.5a6.158,6.158,0,0,1,.4-6.4,52.306,52.306,0,0,0,5.3-9.9,6.026,6.026,0,0,1,5.1-3.8l9.6-.9,1.4-14.4-9.3-2.8A6.406,6.406,0,0,1,466.3,715.7Zm-51.8,45.4a36.777,36.777,0,1,1,40.2-33A36.793,36.793,0,0,1,414.5,761.1Z" fill="#2a94f4"/>
      <path id="Path_52494" data-name="Path 52494" d="M393.7,722a24.518,24.518,0,1,1,22,26.8A24.49,24.49,0,0,1,393.7,722Z" fill="#2a94f4"/>
    </g>
    <ellipse id="Ellipse_548" data-name="Ellipse 548" cx="452.5" cy="36.6" rx="452.5" ry="36.6" transform="translate(461.5 968.6)" fill="#2a94f4" opacity="0.1"/>
    <path id="Path_52495" data-name="Path 52495" d="M776.8,888.5a15.407,15.407,0,0,0,15.4,15.4h553.3a15.407,15.407,0,0,0,15.4-15.4V412.1h-584V888.5Z" fill="#1dbf73" opacity="0.19"/>
    <path id="Path_52496" data-name="Path 52496" d="M950.6,691.8a125.288,125.288,0,0,0,10.8,26,15.36,15.36,0,0,1-.6,16l-13.4,20.1,25.7,25.7,20.1-13.4a15.36,15.36,0,0,1,16-.6,120.934,120.934,0,0,0,26,10.8,15.593,15.593,0,0,1,10.9,11.8l4.7,23.7h36.3l4.8-23.8a15.418,15.418,0,0,1,10.9-11.8,125.289,125.289,0,0,0,26-10.8,15.36,15.36,0,0,1,16,.6l20.1,13.4,25.7-25.7-13.4-20.1a15.36,15.36,0,0,1-.6-16,120.94,120.94,0,0,0,10.8-26,15.593,15.593,0,0,1,11.8-10.9l23.7-4.7V639.8l-23.8-4.8a15.418,15.418,0,0,1-11.8-10.9,125.282,125.282,0,0,0-10.8-26,15.36,15.36,0,0,1,.6-16l13.4-20.1-25.7-25.7-20.1,13.4a15.36,15.36,0,0,1-16,.6,120.932,120.932,0,0,0-26-10.8,15.593,15.593,0,0,1-10.9-11.8l-4.7-23.7h-36.3l-4.8,23.8a15.418,15.418,0,0,1-10.9,11.8,125.288,125.288,0,0,0-26,10.8,15.36,15.36,0,0,1-16-.6L973,536.4l-25.7,25.7,13.4,20.1a15.36,15.36,0,0,1,.6,16,120.934,120.934,0,0,0-10.8,26,15.593,15.593,0,0,1-11.8,10.9L915,639.8v36.3l23.8,4.8A15.128,15.128,0,0,1,950.6,691.8Zm118.2-126.1a92.2,92.2,0,1,1-92.2,92.2A92.226,92.226,0,0,1,1068.8,565.7Zm-292-230.5v46.1h584V335.2a15.407,15.407,0,0,0-15.4-15.4H792.1A15.322,15.322,0,0,0,776.8,335.2Zm153.7,0h30.7V366H930.5Zm-61.5,0h30.7V366H869Zm-61.5,0h30.7V366H807.5Z" fill="#1dbf73"/>
    <path id="Path_52497" data-name="Path 52497" d="M1130.3,658a61.5,61.5,0,1,1-61.5-61.5A61.52,61.52,0,0,1,1130.3,658ZM1084.2,58.6a15.407,15.407,0,0,0-15.4-15.4H515.5a15.407,15.407,0,0,0-15.4,15.4v46.1h584V58.6ZM561.6,89.3H530.9V58.6h30.7Zm61.5,0H592.4V58.6h30.7Zm61.5,0H653.9V58.6h30.7Z" fill="#1dbf73"/>
    <path id="Path_52498" data-name="Path 52498" d="M746,335.2a46.049,46.049,0,0,1,46.1-46.1h292V135.4h-584V611.8a15.407,15.407,0,0,0,15.4,15.4H746ZM869,212.3h30.7V243H869Zm-61.5,0h30.7V243H807.5Zm-61.5,0h30.7V243H746ZM684.6,581.1h-123V550.4h123Zm0-61.5h-123V488.9h123Zm0-61.4h-123V427.5h123Zm0-61.5h-123V366h123Zm0-61.5h-123V304.5h123Zm0-92.2V212.3h30.7V243Z" fill="#1dbf73" opacity="0.19"/>
    <path id="Path_52499" data-name="Path 52499" d="M866.3,767.1l.6-16.2,11.5,3.5,2.2,20.2S869.6,775.3,866.3,767.1Z" fill="#fcd2b1"/>
    <path id="Path_52500" data-name="Path 52500" d="M867.3,767.2a21.242,21.242,0,0,0,12.8.8l-.7-4.6a9.486,9.486,0,0,1,4,6.1c.8,4.1,1,3,6.2,6.2,5.3,3.2,4.9,10.4,4.9,10.4l-39.2-1s-1.1-7.9,6-16.3A5.131,5.131,0,0,1,867.3,767.2Z" fill="#0e538c"/>
    <path id="Path_52501" data-name="Path 52501" d="M804,529s-5.1,19.9,2.1,32.4,20.2-15.2,20.2-15.2S824,519.6,804,529Z" fill="#1dbf73"/>
    <path id="Path_52502" data-name="Path 52502" d="M800.4,434.6s-26.4,35.9-30.8,57.6c-4.5,21.7.3,69.1.3,69.1h10.8s5.7-60.5,9.3-69.1c3.6-8.8,27-49.4,27-49.4Z" fill="#ffe3ca"/>
    <rect id="Rectangle_3155" data-name="Rectangle 3155" width="100.2" height="11.5" transform="translate(795.9 784.3)" fill="#d3d3d3"/>
    <rect id="Rectangle_3156" data-name="Rectangle 3156" width="107.7" height="11.5" transform="translate(774.5 863.7)" fill="#d3d3d3"/>
    <rect id="Rectangle_3157" data-name="Rectangle 3157" width="107.7" height="11.5" transform="translate(764.8 940.5)" fill="#d3d3d3"/>
    <path id="Path_52503" data-name="Path 52503" d="M754,1016.9H742l88.4-415.8h6.7Z" fill="#d3d3d3"/>
    <path id="Path_52504" data-name="Path 52504" d="M879.3,1016.9h-12l70.1-427.5,5.9,2.8Z" fill="#d3d3d3"/>
    <path id="Path_52505" data-name="Path 52505" d="M855,1016.9l64.5-415.1-89.1-.7L742,1016.9H728.2L818,589.4H937.4l-66.3,427.5H853" fill="#f7f7f7"/>
    <path id="Path_52506" data-name="Path 52506" d="M814.5,767.1l.6-16.2,11.5,3.5,2.2,20.2C828.7,774.6,817.8,775.3,814.5,767.1Z" fill="#fcd2b1"/>
    <path id="Path_52507" data-name="Path 52507" d="M928,401.6s28.5-2.1,31.9-15.3,2.8-48.8,2.8-48.8h9.9s6.8,33.1,6.4,48.8-19.5,42.5-51,40.8C896.6,425.4,928,401.6,928,401.6Z" fill="#ffe3ca"/>
    <path id="Path_52508" data-name="Path 52508" d="M835.7,399.9s-16.5,1.7-23.3,8.9c-3.3,3.5-23.8,28.9-23,34.4l24.1,15,19.7-27.3Z" fill="#2a94f4"/>
    <path id="Path_52509" data-name="Path 52509" d="M809.9,522.2s-7.1,21-.4,44,6.7,69.4,6.1,81.5-11.9,47.1-2.3,108.9h14.8s9-64.8,14.2-92.4c4.9-25.9,11.1-90.5,11.1-90.5S872,635,868.9,650.8c-3.4,17.4-3.8,105.7-3.8,105.7H880s16.7-76,17.7-96.4c1.1-20.4-1.2-134.8-1.2-134.8S846.9,491.6,809.9,522.2Z" fill="#0b4870"/>
    <path id="Path_52510" data-name="Path 52510" d="M860.7,360l-15.1,46.2,27.3,5.4,6-47.9Z" fill="#fcd2b1"/>
    <path id="Path_52511" data-name="Path 52511" d="M876.2,397.3s18.5,3.8,20.4,28,4.5,127.4,4.5,136.3c-.6,4.1-72.5,17.8-93.9-3-5.4-5.3,12.3-95.1,9.8-118.7C814.4,416.4,828.4,386.5,876.2,397.3Z" fill="#2a94f4"/>
    <path id="Path_52512" data-name="Path 52512" d="M897.7,445.7s7.4-16.9,30.3-18.6c0,0,5.5-15.7,0-25.5,0,0-41.5-8.5-57.3-5.3S897.7,445.7,897.7,445.7Z" fill="#2a94f4"/>
    <path id="Path_52513" data-name="Path 52513" d="M972.5,346.4s3.1-16.6-2.4-26c-3.3-5.6-6.9-8.2-10.5-7.2-2.4.7-3.4,4.9-2.8,7.3.8,3.1,3.4,11.6,4.8,14,0,0-2.5,0-5.1-5.6-2.5-5.5-4.4,2.6-2.4,6.4C957.1,340.8,967,355.9,972.5,346.4Z" fill="#ffe3ca"/>
    <path id="Path_52514" data-name="Path 52514" d="M815.4,767.2a21.242,21.242,0,0,0,12.8.8l-.7-4.6a9.486,9.486,0,0,1,4,6.1c.8,4.1,1,3,6.2,6.2,5.3,3.2,4.9,10.4,4.9,10.4l-39.2-1s-1.1-7.9,6-16.3A5.169,5.169,0,0,1,815.4,767.2Z" fill="#0e538c"/>
    <path id="Path_52515" data-name="Path 52515" d="M899.4,353.1c-.7-5.8,11.9-9.7-12.2-26.7-12.3-8.6-33.7-4.8-40.3,8.2s-3.1,14.3-8.2,15.2c-5.1,1,.3,41.2,31.1,40.7C900.7,390,899.4,353.1,899.4,353.1Z" fill="#0b4870"/>
    <path id="Path_52516" data-name="Path 52516" d="M813.6,406.6" fill="#333"/>
    <path id="Path_52517" data-name="Path 52517" d="M805.7,515h93.8a7.28,7.28,0,0,1,7.3,6.5c1.6,14.1,3.3,46.1-13.2,48.4-21.2,3-28-19.9-28-41.2L804,529S801.9,518.8,805.7,515Z" fill="#1dbf73"/>
    <path id="Path_52518" data-name="Path 52518" d="M769.9,561.3" fill="#2a94f4"/>
    <path id="Path_52519" data-name="Path 52519" d="M780,555.7s-1.8,21.3,5.1,27.1c6.9,5.9-12.2,8.5-16.9-2.3s1.7-24.8,1.7-24.8Z" fill="#ffe3ca"/>
    <path id="Path_52520" data-name="Path 52520" d="M778.2,558.5a12.187,12.187,0,0,1,8.8,8,57.076,57.076,0,0,1,2.6,11,2.172,2.172,0,0,1-3.5,2,6.628,6.628,0,0,1-2.9-6.1c.5-6.5-7.3-4.6-7.3-4.6S773.3,561.1,778.2,558.5Z" fill="#ffe3ca"/>
    <path id="Path_52521" data-name="Path 52521" d="M882.9,529.7H878V515.2a1.538,1.538,0,0,1,1.5-1.5h2a1.538,1.538,0,0,1,1.5,1.5v14.5Zm7.3,0h-4.9v-9.6a1.538,1.538,0,0,1,1.5-1.5h2a1.538,1.538,0,0,1,1.5,1.5v9.6Zm9.3,0h-6.8V508.8a2.006,2.006,0,0,1,2-2h2.8a2.006,2.006,0,0,1,2,2Z" fill="#f7f7f7"/>
    <rect id="Rectangle_3158" data-name="Rectangle 3158" width="37.8" height="3.2" transform="translate(867.2 529.7)" fill="#161616" opacity="0.32"/>
    <g id="Group_68476" data-name="Group 68476">
      <path id="Path_52522" data-name="Path 52522" d="M557.4,819.5a65.95,65.95,0,0,0-6.8-13.2,8.183,8.183,0,0,1-.4-8.4l6.2-11.2-14.6-12.4-10,8a8,8,0,0,1-8.4,1,64.315,64.315,0,0,0-14.1-4.5,8.026,8.026,0,0,1-6.2-5.7l-3.5-12.2-19.1,1.6L479,775.2a8.225,8.225,0,0,1-5.2,6.7,65.949,65.949,0,0,0-13.2,6.8,8.183,8.183,0,0,1-8.4.4L441,782.9l-12.4,14.6,8,10a8,8,0,0,1,1,8.4,64.314,64.314,0,0,0-4.5,14.1,8.026,8.026,0,0,1-5.7,6.2l-12.3,3.5,1.6,19.1,12.7,1.5a8.225,8.225,0,0,1,6.7,5.2,65.95,65.95,0,0,0,6.8,13.2,8.183,8.183,0,0,1,.4,8.4l-6.2,11.2,14.6,12.4,10-8a8,8,0,0,1,8.4-1,64.315,64.315,0,0,0,14.1,4.5,8.026,8.026,0,0,1,6.2,5.7l3.5,12.3,19.1-1.6,1.5-12.7a8.225,8.225,0,0,1,5.2-6.7,65.95,65.95,0,0,0,13.2-6.8,8.183,8.183,0,0,1,8.4-.4l11.2,6.2,12.4-14.6-8-10a8,8,0,0,1-1-8.4,64.316,64.316,0,0,0,4.5-14.1,8.026,8.026,0,0,1,5.7-6.2l12.3-3.5-1.6-19.1-12.7-1.5A8.521,8.521,0,0,1,557.4,819.5ZM500.8,891a48.719,48.719,0,1,1,44.5-52.6A48.8,48.8,0,0,1,500.8,891Z" fill="#1dbf73"/>
      <path id="Path_52523" data-name="Path 52523" d="M464.4,845.2a32.467,32.467,0,1,1,35.1,29.6A32.5,32.5,0,0,1,464.4,845.2Z" fill="#1dbf73"/>
    </g>
    <g id="Group_68477" data-name="Group 68477">
      <path id="Path_52524" data-name="Path 52524" d="M713.1,687.9a82.957,82.957,0,0,0-15.7-11.2,10.438,10.438,0,0,1-5.4-9.5l.5-16.6L668.3,645l-6.8,15.1a10.493,10.493,0,0,1-9.1,6.2,82.105,82.105,0,0,0-19,3.2,10.482,10.482,0,0,1-10.6-2.9l-11.3-12.1-21.1,13.1,5.8,15.6a10.443,10.443,0,0,1-2.1,10.8,82.957,82.957,0,0,0-11.2,15.7,10.438,10.438,0,0,1-9.5,5.4l-16.6-.5-5.6,24.2,15.1,6.8a10.493,10.493,0,0,1,6.2,9.1,87.638,87.638,0,0,0,3.1,19,10.482,10.482,0,0,1-2.9,10.6l-12.1,11.3,13.1,21.1,15.6-5.9a10.483,10.483,0,0,1,10.8,2.1,82.957,82.957,0,0,0,15.7,11.2,10.254,10.254,0,0,1,5.4,9.5l-.5,16.6,24.2,5.6,6.8-15.1a10.493,10.493,0,0,1,9.1-6.2,87.638,87.638,0,0,0,19-3.1,10.482,10.482,0,0,1,10.6,2.9l11.3,12.1,21.1-13.1L717,817.7a10.443,10.443,0,0,1,2.1-10.8,82.957,82.957,0,0,0,11.2-15.7,10.438,10.438,0,0,1,9.5-5.4l16.6.5,5.6-24.2-15.1-6.8a10.493,10.493,0,0,1-6.2-9.1,87.638,87.638,0,0,0-3.1-19,10.482,10.482,0,0,1,2.9-10.6l12.1-11.3-13.1-21.1L723.9,690A10.927,10.927,0,0,1,713.1,687.9ZM690.1,804a63.224,63.224,0,1,1,20.2-87.1A63.239,63.239,0,0,1,690.1,804Z" fill="#8a94a6"/>
      <path id="Path_52525" data-name="Path 52525" d="M620.9,772.6a42.108,42.108,0,1,1,58,13.5A42.061,42.061,0,0,1,620.9,772.6Z" fill="#8a94a6"/>
    </g>
    <g id="Group_68478" data-name="Group 68478">
      <path id="Path_52526" data-name="Path 52526" d="M1412.8,222.4a78.146,78.146,0,0,0-9.7,16.2,10.4,10.4,0,0,1-8.9,6.1l-16.3.8-3.6,24.1,15.3,5.5a10.41,10.41,0,0,1,6.7,8.4,76.755,76.755,0,0,0,4.6,18.3,10.314,10.314,0,0,1-2,10.6l-10.9,12,14.5,19.6,14.8-6.9a10.367,10.367,0,0,1,10.7,1.2,78.151,78.151,0,0,0,16.2,9.7,10.4,10.4,0,0,1,6.1,8.9l.8,16.3,24.1,3.6,5.5-15.3a10.41,10.41,0,0,1,8.4-6.7,76.748,76.748,0,0,0,18.3-4.6,10.314,10.314,0,0,1,10.6,2l12,11,19.6-14.5-6.9-14.8a10.367,10.367,0,0,1,1.2-10.7,78.146,78.146,0,0,0,9.7-16.2,10.4,10.4,0,0,1,8.9-6.1l16.3-.8,3.6-24.1-15.3-5.5a10.41,10.41,0,0,1-6.7-8.4,76.755,76.755,0,0,0-4.6-18.3,10.314,10.314,0,0,1,2-10.6l11-12-14.5-19.6-14.8,6.9a10.367,10.367,0,0,1-10.7-1.2,78.15,78.15,0,0,0-16.2-9.7,10.4,10.4,0,0,1-6.1-8.9l-.8-16.3-24.1-3.6-5.5,15.3a10.41,10.41,0,0,1-8.4,6.7,76.75,76.75,0,0,0-18.3,4.6,10.314,10.314,0,0,1-10.6-2l-12-11-19.6,14.5,6.9,14.8A10.615,10.615,0,0,1,1412.8,222.4Zm115.3,13.5a61.991,61.991,0,1,1-86.7-13A62.063,62.063,0,0,1,1528.1,235.9Z" fill="#1dbf73"/>
      <path id="Path_52527" data-name="Path 52527" d="M1502.8,306a41.331,41.331,0,1,1,8.7-57.8A41.262,41.262,0,0,1,1502.8,306Z" fill="#1dbf73"/>
    </g>
    <g id="Group_68479" data-name="Group 68479">
      <path id="Path_52528" data-name="Path 52528" d="M1166,141.6a111.866,111.866,0,0,0-1.7,24.5,13.472,13.472,0,0,1-6.7,12.3l-18.3,10.5,10.1,30,21-2.7a13.421,13.421,0,0,1,12.7,5.7,109.652,109.652,0,0,0,16.1,18.5,13.478,13.478,0,0,1,3.9,13.4l-5.5,20.3,28.3,14.1,13-16.7a13.368,13.368,0,0,1,13-5,106.04,106.04,0,0,0,24.5,1.7,13.472,13.472,0,0,1,12.3,6.7l10.5,18.3,30-10.1-2.7-21a13.421,13.421,0,0,1,5.7-12.7,105.35,105.35,0,0,0,18.5-16.1,13.478,13.478,0,0,1,13.4-3.9l20.4,5.5,14.1-28.4-16.8-13a13.368,13.368,0,0,1-5-13,106.038,106.038,0,0,0,1.7-24.5,13.669,13.669,0,0,1,6.7-12.3l18.3-10.5-10.1-30-21,2.7a13.421,13.421,0,0,1-12.7-5.7,105.35,105.35,0,0,0-16.1-18.5,13.478,13.478,0,0,1-3.9-13.4l5.5-20.4L1317,33.8l-13,16.7a13.368,13.368,0,0,1-13,5,106.039,106.039,0,0,0-24.5-1.7,13.472,13.472,0,0,1-12.3-6.7l-10.5-18.3-30,10.1,2.7,21a13.421,13.421,0,0,1-5.7,12.7,105.35,105.35,0,0,0-18.5,16.1,13.478,13.478,0,0,1-13.4,3.9l-20.4-5.5-14.1,28.4,16.7,13A13.062,13.062,0,0,1,1166,141.6Zm141.3-52.7a80.5,80.5,0,1,1-107.9,36.3A80.591,80.591,0,0,1,1307.3,88.9Z" fill="#8a94a6"/>
      <path id="Path_52529" data-name="Path 52529" d="M1319.5,184.9a53.643,53.643,0,1,1-24.2-71.9A53.67,53.67,0,0,1,1319.5,184.9Z" fill="#8a94a6"/>
    </g>
  </g>
</svg>
